<svg xmlns="http://www.w3.org/2000/svg" viewBox="0 0 97.44 75"><defs><style>.cls-1{fill:#211915;}</style></defs><title>logo</title><g id="Capa_2" data-name="Capa 2"><g id="Capa_1-2" data-name="Capa 1"><path class="cls-1" d="M2.05,9.5C1.12,9.5.54,9.35.32,9.05A3.45,3.45,0,0,1,0,7.25V2.1Q0,.64.48.33A3.3,3.3,0,0,1,2.25,0h65.9a3,3,0,0,1,2,.42,3.19,3.19,0,0,1,.4,2V24.55a5,5,0,0,1-.15,1.62q-.15.33-1.5.33H63.15c-.73,0-1.18-.17-1.35-.5a3.67,3.67,0,0,1-.3-1.45,26.78,26.78,0,0,0-1.45-8.9,8.39,8.39,0,0,0-4.38-4.73A21.13,21.13,0,0,0,47.05,9.5H30.1a3.78,3.78,0,0,0-2,.38c-.39.25-.58.89-.58,1.92V30.55a4.6,4.6,0,0,0,.3,2c.2.37.7.55,1.5.55h3.5q4.95,0,7.53-2.72a11.37,11.37,0,0,0,3-6.68,4.74,4.74,0,0,1,.4-1.55c.17-.3.55-.45,1.15-.45h3.6a2.56,2.56,0,0,1,1.62.35,2.3,2.3,0,0,1,.38,1.6v26.5a3.05,3.05,0,0,1-.3,1.65c-.2.27-.72.4-1.55.4H45.15c-.67,0-1.1-.16-1.3-.47a4.88,4.88,0,0,1-.5-1.68,11.9,11.9,0,0,0-1.62-4.8,10.61,10.61,0,0,0-3.5-3.55,9.55,9.55,0,0,0-5.13-1.35H29.65A2.06,2.06,0,0,0,28,40.9a3.18,3.18,0,0,0-.47,2V63.4c0,1,.14,1.64.43,1.83a4.57,4.57,0,0,0,2,.27h16q6.45,0,10-1.62a9.37,9.37,0,0,0,5-5.4A31.54,31.54,0,0,0,62.5,48.25a4.4,4.4,0,0,1,.3-1.85c.17-.27.7-.4,1.6-.4h5.2a2.56,2.56,0,0,1,1.63.33A2.71,2.71,0,0,1,71.55,48V73.15c0,.87-.1,1.39-.3,1.58a2.84,2.84,0,0,1-1.6.27H2.25a5.26,5.26,0,0,1-1.77-.2C.16,74.67,0,74.13,0,73.2V67c0-.77.12-1.21.35-1.33A4,4,0,0,1,1.8,65.5H8.55c1.17,0,1.87-.12,2.1-.37A3.71,3.71,0,0,0,11,63.05V11.5c0-.93-.14-1.5-.43-1.7A3.71,3.71,0,0,0,8.7,9.5Z"/><path class="cls-1" d="M80.61,61.48a9.37,9.37,0,0,1,3.28-3.25,8.94,8.94,0,0,1,9,0,9.26,9.26,0,0,1,3.27,3.25,8.88,8.88,0,0,1,0,9,9.15,9.15,0,0,1-3.27,3.27,8.94,8.94,0,0,1-9,0,9.26,9.26,0,0,1-3.28-3.27,8.95,8.95,0,0,1,0-9Z"/></g></g></svg>