<svg xmlns="http://www.w3.org/2000/svg" viewBox="0 0 147.44 112.5"><title>logo_2</title><g id="Capa_2" data-name="Capa 2"><g id="Capa_1-2" data-name="Capa 1"><path d="M2.7,8.25c-1.25,0-2-.24-2.29-.71A5.3,5.3,0,0,1,0,5.1V2.85A4,4,0,0,1,.45.56C.75.19,1.45,0,2.55,0H92.7A7,7,0,0,1,96,.49c.47.32.71,1.36.71,3.11V32.25a23.54,23.54,0,0,1-.08,2.4c0,.4-.72.6-2,.6h-3c-1.1,0-1.76-.24-2-.71a6.11,6.11,0,0,1-.41-2.14Q89,23.25,86.89,18A13.46,13.46,0,0,0,80,10.46q-4.8-2.21-13.2-2.21H34.05a4.33,4.33,0,0,0-2.66.56c-.43.38-.64,1.29-.64,2.74V48a6.09,6.09,0,0,0,.38,2.48c.24.55,1,.82,2.17.82H43.5q9,0,13.2-4.13a16.24,16.24,0,0,0,4.72-10.72,4,4,0,0,1,.53-2,1.92,1.92,0,0,1,1.5-.45h2.47a2.59,2.59,0,0,1,1.8.49,2.34,2.34,0,0,1,.53,1.76v36a5.12,5.12,0,0,1-.37,2.4c-.26.4-.93.6-2,.6H63.38a2.24,2.24,0,0,1-1.28-.41c-.4-.28-.65-1-.75-2.14A19.48,19.48,0,0,0,59,64.84a13.88,13.88,0,0,0-5.74-5.51,20.72,20.72,0,0,0-9.79-2H33.6c-1.3,0-2.1.21-2.4.64a5.16,5.16,0,0,0-.45,2.66V101a4.33,4.33,0,0,0,.56,2.7c.38.4,1.29.6,2.74.6h31.2q9.9,0,15.38-2.4a14.15,14.15,0,0,0,7.72-8.4q2.25-6,2.4-16.8a3.15,3.15,0,0,1,.41-2,1.83,1.83,0,0,1,1.39-.45H95.4a4.76,4.76,0,0,1,2.14.38c.47.25.71.87.71,1.87V110A3.22,3.22,0,0,1,97.8,112a2.71,2.71,0,0,1-2,.49H3a4.45,4.45,0,0,1-2.33-.45c-.44-.3-.67-1-.67-2.25v-3.45q0-1.5.6-1.8a5.15,5.15,0,0,1,2.1-.3h9.75c1.85,0,3-.24,3.41-.71s.64-1.64.64-3.49V11.4c0-1.55-.23-2.46-.67-2.74a7,7,0,0,0-3-.41Z"/><path d="M121,43a15.25,15.25,0,0,1,5.15-5.14,13.26,13.26,0,0,1,7.1-2,13.56,13.56,0,0,1,7.15,2A14.57,14.57,0,0,1,145.51,43a13.69,13.69,0,0,1,1.89,7.1,14.09,14.09,0,0,1-14.19,14.2,13.67,13.67,0,0,1-7.1-1.89A14.6,14.6,0,0,1,121,57.28,13.68,13.68,0,0,1,119,50.12,13.37,13.37,0,0,1,121,43Z"/><path d="M147.32,72.18c-.07-.14-.25-.21-.53-.21H119.68a.61.61,0,0,0-.55.23,2,2,0,0,0-.15.94v2.18a4.23,4.23,0,0,0,.08,1c.06.15.25.23.57.23h27.11c.33,0,.53-.11.6-.32a4.19,4.19,0,0,0,.1-1.06V73.14A2.36,2.36,0,0,0,147.32,72.18Z"/></g></g></svg>