<svg xmlns="http://www.w3.org/2000/svg" viewBox="0 0 95.04 76.5"><defs><style>.cls-1{fill:#211915;}</style></defs><title>logo_1</title><g id="Capa_2" data-name="Capa 2"><g id="Capa_1-2" data-name="Capa 1"><path class="cls-1" d="M5.15,22c-.93,0-1.51-.15-1.73-.45a3.45,3.45,0,0,1-.32-1.8V14.6q0-1.45.48-1.77a3.3,3.3,0,0,1,1.77-.33h65.9a3,3,0,0,1,2,.42,3.19,3.19,0,0,1,.4,2V37.05a5,5,0,0,1-.15,1.62Q73.35,39,72,39H66.25c-.73,0-1.18-.17-1.35-.5a3.67,3.67,0,0,1-.3-1.45,26.78,26.78,0,0,0-1.45-8.9,8.39,8.39,0,0,0-4.38-4.73A21.13,21.13,0,0,0,50.15,22H33.2a3.78,3.78,0,0,0-2,.38c-.39.25-.58.89-.58,1.92V43.05a4.6,4.6,0,0,0,.3,2c.2.37.7.55,1.5.55H36q4.95,0,7.53-2.72a11.37,11.37,0,0,0,3-6.68,4.74,4.74,0,0,1,.4-1.55c.17-.3.55-.45,1.15-.45h3.6a2.56,2.56,0,0,1,1.62.35,2.3,2.3,0,0,1,.38,1.6v26.5a3.05,3.05,0,0,1-.3,1.65c-.2.27-.72.4-1.55.4H48.25c-.67,0-1.1-.16-1.3-.47a4.88,4.88,0,0,1-.5-1.68,11.9,11.9,0,0,0-1.62-4.8,10.61,10.61,0,0,0-3.5-3.55,9.53,9.53,0,0,0-5.13-1.35H32.75a2,2,0,0,0-1.62.55,3.11,3.11,0,0,0-.48,2V75.9c0,1,.14,1.64.43,1.83a4.57,4.57,0,0,0,2,.27h16c4.3,0,7.62-.54,10-1.62A9.35,9.35,0,0,0,64.08,71,31.54,31.54,0,0,0,65.6,60.75a4.4,4.4,0,0,1,.3-1.85c.17-.27.7-.4,1.6-.4h5.2a2.56,2.56,0,0,1,1.63.33,2.71,2.71,0,0,1,.32,1.67V85.65c0,.87-.1,1.39-.3,1.58a2.84,2.84,0,0,1-1.6.27H5.35a5.26,5.26,0,0,1-1.77-.2c-.32-.13-.48-.67-.48-1.6V79.5c0-.77.12-1.21.35-1.33A4,4,0,0,1,4.9,78h6.75c1.17,0,1.87-.12,2.1-.37a3.71,3.71,0,0,0,.35-2.08V24c0-.93-.14-1.5-.43-1.7A3.71,3.71,0,0,0,11.8,22Z" transform="translate(-3.1 -12.5)"/><path class="cls-1" d="M81.32,75.48a9.26,9.26,0,0,1,3.27-3.25,8.94,8.94,0,0,1,9,0,9.37,9.37,0,0,1,3.28,3.25,8.95,8.95,0,0,1,0,9,9.26,9.26,0,0,1-3.28,3.27,8.94,8.94,0,0,1-9,0,9.15,9.15,0,0,1-3.27-3.27,8.88,8.88,0,0,1,0-9Z" transform="translate(-3.1 -12.5)"/></g></g></svg>